<svg width="40" height="45" viewBox="0 0 40 45" fill="none" xmlns="http://www.w3.org/2000/svg">
<g>
<path d="M11.1524 18.4604H6.29489C5.89836 18.4604 5.55139 18.8097 5.55139 19.2088V24.0984C5.55139 24.4975 5.89836 24.8468 6.29489 24.8468H11.1524C11.5489 24.8468 11.8959 24.4975 11.8959 24.0984V19.2088C11.8959 18.7598 11.5985 18.4604 11.1524 18.4604ZM10.4089 23.3001H7.03838V19.9572H10.4089V23.3001Z" fill="#E32125"/>
<path d="M22.4535 18.4604H17.596C17.1995 18.4604 16.8525 18.8097 16.8525 19.2088V24.0984C16.8525 24.4975 17.1995 24.8468 17.596 24.8468H22.4535C22.8501 24.8468 23.197 24.4975 23.197 24.0984V19.2088C23.197 18.7598 22.8501 18.4604 22.4535 18.4604ZM21.71 23.3001H18.3395V19.9572H21.71V23.3001Z" fill="#E32125"/>
<path d="M33.4077 18.4604H28.5502C28.1537 18.4604 27.8067 18.8097 27.8067 19.2088V24.0984C27.8067 24.4975 28.1537 24.8468 28.5502 24.8468H33.4077C33.8042 24.8468 34.1512 24.4975 34.1512 24.0984V19.2088C34.1512 18.7598 33.8042 18.4604 33.4077 18.4604ZM32.6642 23.3001H29.2937V19.9572H32.6642V23.3001Z" fill="#E32125"/>
<path d="M11.1524 29.5369H6.29489C5.89836 29.5369 5.55139 29.8861 5.55139 30.2853V35.1748C5.55139 35.574 5.89836 35.9232 6.29489 35.9232H11.1524C11.5489 35.9232 11.8959 35.574 11.8959 35.1748V30.2853C11.8959 29.8861 11.5985 29.5369 11.1524 29.5369ZM10.4089 34.4264H7.03838V31.0337H10.4089V34.4264Z" fill="#E32125"/>
<path d="M22.4535 29.5369H17.596C17.1995 29.5369 16.8525 29.8861 16.8525 30.2853V35.1748C16.8525 35.574 17.1995 35.9232 17.596 35.9232H22.4535C22.8501 35.9232 23.197 35.574 23.197 35.1748V30.2853C23.197 29.8861 22.8501 29.5369 22.4535 29.5369ZM21.71 34.4264H18.3395V31.0337H21.71V34.4264Z" fill="#E32125"/>
<path d="M33.4077 29.5369H28.5502C28.1537 29.5369 27.8067 29.8861 27.8067 30.2853V35.1748C27.8067 35.574 28.1537 35.9232 28.5502 35.9232H33.4077C33.8042 35.9232 34.1512 35.574 34.1512 35.1748V30.2853C34.1512 29.8861 33.8042 29.5369 33.4077 29.5369ZM32.6642 34.4264H29.2937V31.0337H32.6642V34.4264Z" fill="#E32125"/>
<path d="M39.2565 3.94157H34.3494V2.9437C34.3494 1.29722 33.0112 0 31.425 0C29.7893 0 28.5006 1.34712 28.5006 2.9437V3.94157H22.9492V2.9437C22.9492 1.29722 21.6109 0 20.0248 0C18.4387 0 17.1004 1.34712 17.1004 2.9437V3.94157H11.5489V2.9437C11.5489 1.29722 10.2107 0 8.62454 0C7.03841 0 5.70012 1.34712 5.70012 2.9437V3.94157H0.743494C0.346964 3.94157 0 4.29082 0 4.68997V43.457C0 43.8562 0.346964 44.2054 0.743494 44.2054H39.2565C39.653 44.2054 40 43.8562 40 43.457V4.68997C40 4.29082 39.7026 3.94157 39.2565 3.94157ZM29.9876 2.9437C29.9876 2.14541 30.632 1.4968 31.425 1.4968C32.2181 1.4968 32.8625 2.14541 32.8625 2.9437V7.08484C32.8625 7.88313 32.2181 8.53175 31.425 8.53175C30.632 8.53175 29.9876 7.88313 29.9876 7.08484V2.9437ZM20.0248 1.4968C20.8178 1.4968 21.4622 2.14541 21.4622 2.9437V7.08484C21.4622 7.88313 20.8178 8.53175 20.0248 8.53175C19.2317 8.53175 18.5874 7.88313 18.5874 7.08484V4.78975V4.73986V4.68997V2.9437C18.5378 2.14541 19.1822 1.4968 20.0248 1.4968ZM7.13755 2.9437C7.13755 2.14541 7.78191 1.4968 8.57497 1.4968C9.36803 1.4968 10.0124 2.14541 10.0124 2.9437V7.08484C10.0124 7.88313 9.36803 8.53175 8.57497 8.53175C7.78191 8.53175 7.13755 7.88313 7.13755 7.08484V2.9437ZM38.513 42.7585H1.48699V5.43836H5.65056V7.08484C5.65056 8.73132 6.98885 10.0285 8.57497 10.0285C10.1611 10.0285 11.4994 8.68143 11.4994 7.08484V5.43836H17.0508V7.08484C17.0508 8.73132 18.3891 10.0285 19.9752 10.0285C21.5613 10.0285 22.8996 8.68143 22.8996 7.08484V5.43836H28.4511V7.08484C28.4511 8.73132 29.7893 10.0285 31.3755 10.0285C33.0112 10.0285 34.2999 8.68143 34.2999 7.08484V5.43836H38.4634V42.7585H38.513Z" fill="#E32125"/>
</g>
</svg>
