<svg width="34" height="42" viewBox="0 0 34 42" fill="none" xmlns="http://www.w3.org/2000/svg">
<g>
<path d="M6.10352e-05 0V42H34.0001V0H6.10352e-05ZM32.4569 40.4801H1.54318V1.5199H32.4569V40.4801Z" fill="#E32125"/>
<path d="M21.9123 26.8516C22.6324 25.889 23.0439 24.7238 23.0439 23.4065C23.0439 20.1134 20.3177 17.4789 17.0258 17.4789C13.7338 17.4789 11.0076 20.164 11.0076 23.4065C11.0076 24.6731 11.4191 25.889 12.1392 26.8516L8.23 32.3739C8.02425 32.6273 8.02425 32.9819 8.23 33.2352C8.38431 33.4885 8.74437 33.6405 9.05299 33.5392L12.0363 32.8806L12.6022 35.6671C12.6536 35.971 12.9108 36.2244 13.2708 36.275C13.3223 36.275 13.3223 36.275 13.3737 36.275C13.6309 36.275 13.9395 36.123 14.0424 35.8697L17.0772 30.1954L20.0606 35.8697C20.2149 36.123 20.4721 36.275 20.7292 36.275C20.7807 36.275 20.7807 36.275 20.8321 36.275C21.1407 36.2244 21.3979 35.971 21.5008 35.6671L22.0666 32.8806L25.05 33.5392C25.3586 33.5899 25.6672 33.4885 25.873 33.2352C26.0273 32.9819 26.0273 32.6273 25.873 32.3739L21.9123 26.8516ZM17.0258 18.9988C19.4947 18.9988 21.5008 20.9747 21.5008 23.4065C21.5008 25.8384 19.4947 27.8142 17.0258 27.8142C14.5568 27.8142 12.5507 25.8384 12.5507 23.4065C12.4993 20.9747 14.5053 18.9988 17.0258 18.9988ZM13.5795 33.2859L13.3223 31.8673C13.2708 31.6646 13.168 31.5127 13.0137 31.3607C12.8593 31.2593 12.6022 31.2087 12.4478 31.2593L10.5961 31.6646L13.2194 28.0169C13.991 28.6248 14.8654 29.0808 15.8427 29.2835L13.5795 33.2859ZM21.6037 31.2593C21.3979 31.2087 21.1922 31.2593 21.0379 31.3607C20.8836 31.462 20.7292 31.6646 20.7292 31.8673L20.4721 33.2859L18.3117 29.2328C19.289 29.0301 20.2149 28.5742 20.935 27.9662L23.5583 31.614L21.6037 31.2593Z" fill="#E32125"/>
<path d="M7.81849 11.1966H25.9244C26.3359 11.1966 26.696 10.842 26.696 10.4367C26.696 10.0314 26.3359 9.67673 25.9244 9.67673H7.81849C7.407 9.67673 7.04694 10.0314 7.04694 10.4367C7.04694 10.8926 7.407 11.1966 7.81849 11.1966Z" fill="#E32125"/>
</g>
</svg>
