<svg width="44" height="43" viewBox="0 0 44 43" fill="none" xmlns="http://www.w3.org/2000/svg">
<g>
<path d="M33.3042 35.0538H11.5577C11.1521 35.0538 10.7973 35.4059 10.7973 35.8082C10.7973 36.2106 11.1521 36.5626 11.5577 36.5626H33.3042C33.7097 36.5626 34.0646 36.2106 34.0646 35.8082C34.0646 35.4059 33.7097 35.0538 33.3042 35.0538Z" fill="#E32125"/>
<path d="M34.166 28.8678C36.7005 26.0514 38.2719 22.3298 38.2719 18.2058V12.9754C38.2719 12.5731 37.9171 12.221 37.5116 12.221H6.6913C6.28577 12.221 5.93094 12.5731 5.93094 12.9754V13.9812C2.58531 14.3333 6.10352e-05 17.1497 6.10352e-05 20.5695C6.10352e-05 24.2409 2.99084 27.2081 6.6913 27.2081C6.742 27.2081 6.84338 27.2081 6.89407 27.1578L8.36412 26.7052C8.87103 27.4596 9.37794 28.1637 9.98624 28.8678C3.70052 30.276 0.152135 32.5894 0.152135 35.3555C0.152135 39.0771 7.8572 43.0502 22.1014 43.0502C36.3457 43.0502 44.0508 39.0771 44.0508 35.3555C44.0001 32.5894 40.4517 30.276 34.166 28.8678ZM7.45167 13.7298H36.7512V18.2058C36.7512 22.3298 35.0277 26.0514 32.189 28.7169C32.1383 28.7672 32.0876 28.8175 32.0369 28.8175C29.401 31.2315 25.9033 32.7403 22.0508 32.7403C18.1982 32.7403 14.7005 31.2315 12.0646 28.8175C12.0139 28.7672 12.0139 28.7672 11.9632 28.7169C9.17518 26.0514 7.40098 22.3298 7.40098 18.2058C7.45167 18.2058 7.45167 13.7298 7.45167 13.7298ZM6.58992 25.6994C3.8019 25.5988 1.5208 23.3356 1.5208 20.5695C1.5208 18.0046 3.44707 15.8924 5.93094 15.49V18.2058C5.93094 20.7707 6.53923 23.1848 7.65444 25.3473L6.58992 25.6994ZM22.1014 41.4912C10.0876 41.4912 1.67287 38.2222 1.67287 35.3052C1.67287 33.3438 5.52541 31.2818 11.3042 30.1251C14.1429 32.69 17.9448 34.2491 22.1014 34.2491C26.2581 34.2491 30.0093 32.69 32.8987 30.1251C38.6775 31.2818 42.53 33.3438 42.53 35.3052C42.4793 38.2725 34.1153 41.4912 22.1014 41.4912Z" fill="#E32125"/>
<path d="M14.8019 8.70058C15.2074 8.70058 15.5622 8.34854 15.5622 7.9462V0.754386C15.5622 0.352047 15.2074 0 14.8019 0C14.3963 0 14.0415 0.352047 14.0415 0.754386V7.89591C14.0415 8.34854 14.3963 8.70058 14.8019 8.70058Z" fill="#E32125"/>
<path d="M22.4563 8.70058C22.8618 8.70058 23.2167 8.34854 23.2167 7.9462V0.754386C23.2167 0.352047 22.8618 0 22.4563 0C22.0508 0 21.6959 0.352047 21.6959 0.754386V7.89591C21.6959 8.34854 22.0001 8.70058 22.4563 8.70058Z" fill="#E32125"/>
<path d="M30.06 8.65029C30.4655 8.65029 30.8204 8.29825 30.8204 7.89591V0.754386C30.8204 0.352047 30.4655 0 30.06 0C29.6545 0 29.2996 0.352047 29.2996 0.754386V7.89591C29.2996 8.34854 29.6545 8.65029 30.06 8.65029Z" fill="#E32125"/>
</g>
</svg>
