<svg width="50" height="27" viewBox="0 0 50 27" fill="none" xmlns="http://www.w3.org/2000/svg">
<g>
<path d="M24.973 14.6272C18.3641 14.6272 13.0012 19.8175 13.0012 26.2136C13.0012 26.633 13.3804 27 13.8137 27H36.0781C36.5114 27 36.8906 26.633 36.8906 26.2136C36.9448 19.8175 31.5819 14.6272 24.973 14.6272ZM14.6805 25.4272C15.1138 20.2893 19.5559 16.2 24.973 16.2C30.3901 16.2 34.8321 20.2893 35.2655 25.4272H14.6805Z" fill="#E32125"/>
<path d="M24.8104 13.5786C28.6566 13.5786 31.8527 10.5379 31.8527 6.7631C31.8527 2.98835 28.7108 -0.0524292 24.8104 -0.0524292C20.9643 -0.0524292 17.7682 2.98835 17.7682 6.7631C17.7682 10.5379 20.9101 13.5786 24.8104 13.5786ZM24.8104 1.57281C27.7899 1.57281 30.2276 3.93204 30.2276 6.81553C30.2276 9.69903 27.7899 12.0582 24.8104 12.0582C21.831 12.0582 19.3933 9.69903 19.3933 6.81553C19.3933 3.93204 21.831 1.57281 24.8104 1.57281Z" fill="#E32125"/>
<path d="M9.10082 18.9786C10.4551 18.9786 11.7552 19.3456 12.8928 19.9747C13.272 20.1844 13.7595 20.0796 14.0304 19.7126C14.2471 19.3456 14.1387 18.8738 13.7595 18.6116C12.3511 17.8252 10.7801 17.4058 9.15499 17.4058C4.0629 17.4058 6.10352e-05 21.3378 6.10352e-05 26.2136C6.10352e-05 26.633 0.379259 27 0.812629 27H11.1052C11.5385 27 11.9177 26.633 11.9177 26.2136C11.9177 25.7941 11.5385 25.4272 11.1052 25.4272H1.67937C2.05857 21.8097 5.25467 18.9786 9.10082 18.9786Z" fill="#E32125"/>
<path d="M8.9383 16.1475C11.9177 16.1475 14.3554 13.7883 14.3554 10.9048C14.3554 8.02133 11.9177 5.66211 8.9383 5.66211C5.95888 5.66211 3.52118 8.02133 3.52118 10.9048C3.52118 13.7883 5.95888 16.1475 8.9383 16.1475ZM8.9383 7.1825C11.051 7.1825 12.7303 8.80774 12.7303 10.8524C12.7303 12.8971 11.051 14.5223 8.9383 14.5223C6.82562 14.5223 5.14631 12.8971 5.14631 10.8524C5.14631 8.80774 6.87979 7.1825 8.9383 7.1825Z" fill="#E32125"/>
<path d="M40.9535 17.4058C39.3283 17.4058 37.7574 17.8252 36.3489 18.6116C35.9697 18.8213 35.8072 19.2932 36.078 19.7126C36.2947 20.0796 36.7823 20.2369 37.2156 19.9747C38.3532 19.3456 39.6533 18.9786 41.0076 18.9786C44.8538 18.9786 48.0499 21.8097 48.4291 25.4272H38.8949C38.4616 25.4272 38.0824 25.7941 38.0824 26.2136C38.0824 26.633 38.4616 27 38.8949 27H49.1875C49.6209 27 50 26.633 50 26.2136C50 21.3378 45.9372 17.4058 40.9535 17.4058Z" fill="#E32125"/>
<path d="M41.0618 16.1475C44.0412 16.1475 46.4789 13.7883 46.4789 10.9048C46.4789 8.02133 44.0412 5.66211 41.0618 5.66211C38.0824 5.66211 35.6447 8.02133 35.6447 10.9048C35.6447 13.7883 38.0824 16.1475 41.0618 16.1475ZM41.0618 7.1825C43.1745 7.1825 44.8538 8.80774 44.8538 10.8524C44.8538 12.8971 43.1745 14.5223 41.0618 14.5223C38.9492 14.5223 37.2698 12.8971 37.2698 10.8524C37.2698 8.86017 39.0033 7.1825 41.0618 7.1825Z" fill="#E32125"/>
</g>
</svg>
