<svg width="37" height="53" viewBox="0 0 37 53" fill="none" xmlns="http://www.w3.org/2000/svg">
<path d="M34.1698 28.2575C34.1698 28.1886 34.2388 28.1196 34.2388 28.1196C36.0336 25.225 37 21.9168 37 18.4707C37 8.27048 28.7164 0 18.5 0C8.28358 0 0 8.27048 0 18.4707C0 21.8479 0.966418 25.225 2.76119 28.1196C2.76119 28.1196 2.76119 28.1886 2.83022 28.2575L17.3265 52.5176C17.5336 52.7932 17.8787 53 18.2239 53C18.569 53 18.9142 52.7932 19.1213 52.5176L34.1698 28.2575ZM21.3993 44.8674C21.2612 45.143 21.1922 45.143 20.9851 45.4876L18.2239 49.8986L4.69403 27.3615C4.69403 27.2926 4.625 27.2237 4.625 27.1547C2.96828 24.5358 2.0709 21.5033 2.0709 18.4707C2.0709 9.44213 9.45709 2.06762 18.5 2.06762C27.5429 2.06762 34.9291 9.44213 34.9291 18.4707C34.9291 21.5722 34.0317 24.5358 32.375 27.1547C32.375 27.2237 32.306 27.2926 32.306 27.2926L21.3993 44.8674Z" fill="#E32125"/>
<path d="M25.1959 18.4707C25.1959 14.749 22.1586 11.7854 18.5 11.7854C14.8414 11.7854 11.735 14.749 11.735 18.4707C11.735 22.1924 14.7724 25.156 18.4309 25.156C22.1586 25.156 25.1959 22.1924 25.1959 18.4707ZM13.8059 18.4707C13.8059 15.9206 15.8768 13.853 18.4309 13.853C20.985 13.853 23.0559 15.9206 23.0559 18.4707C23.0559 21.0208 20.985 23.0884 18.4309 23.0884C15.8768 23.0884 13.8059 21.0208 13.8059 18.4707Z" fill="#E32125"/>
</svg>
