<svg width="44" height="29" viewBox="0 0 44 29" fill="none" xmlns="http://www.w3.org/2000/svg">
<g>
<path d="M18.0984 12.3145C14.4787 12.3145 11.5642 15.2756 11.5642 18.8477C11.5642 22.4198 14.5257 25.3809 18.0984 25.3809C21.671 25.3809 24.6326 22.4198 24.6326 18.8477C24.6326 15.2756 21.7181 12.3145 18.0984 12.3145ZM18.0984 24.0179C15.2779 24.0179 12.9745 21.7148 12.9745 18.8947C12.9745 16.0746 15.2779 13.7715 18.0984 13.7715C20.9189 13.7715 23.2223 16.0746 23.2223 18.8947C23.2223 21.7148 20.9659 24.0179 18.0984 24.0179Z" fill="#E32125"/>
<path d="M4.32482 12.3145C3.94875 12.3145 3.61969 12.6435 3.61969 13.0195V24.7229C3.61969 25.0989 3.94875 25.4279 4.32482 25.4279C4.70089 25.4279 5.02995 25.0989 5.02995 24.7229V13.0195C5.02995 12.6435 4.70089 12.3145 4.32482 12.3145Z" fill="#E32125"/>
<path d="M31.6838 12.3145C31.3078 12.3145 30.9787 12.6435 30.9787 13.0195V24.7229C30.9787 25.0989 31.3078 25.4279 31.6838 25.4279C32.0599 25.4279 32.389 25.0989 32.389 24.7229V13.0195C32.389 12.6435 32.1069 12.3145 31.6838 12.3145Z" fill="#E32125"/>
<path d="M43.2949 0H8.79066C8.41459 0 8.08553 0.329011 8.08553 0.705024V4.18314H4.93596C4.55989 4.18314 4.23083 4.51216 4.23083 4.88817V8.7423H0.705189C0.329121 8.7423 6.10352e-05 9.07131 6.10352e-05 9.44733V28.248C6.10352e-05 28.624 0.329121 28.953 0.705189 28.953H35.2095C35.5855 28.953 35.9146 28.624 35.9146 28.248V24.4408H39.3932C39.7693 24.4408 40.0984 24.1118 40.0984 23.7358V20.2107H43.2479C43.624 20.2107 43.9531 19.8817 43.9531 19.5057V0.705024C44.0001 0.329011 43.671 0 43.2949 0ZM1.41032 27.59V10.1994H34.5043V23.7358V27.59H1.41032ZM38.7351 23.0308H35.9616V9.49433C35.9616 9.11831 35.6325 8.7893 35.2565 8.7893H5.64109V5.64019H38.7351V23.0308ZM42.5898 18.8006H40.1454V4.88817C40.1454 4.51216 39.8163 4.18314 39.4402 4.18314H9.49579V1.41005H42.5898V18.8006Z" fill="#E32125"/>
</g>
</svg>
