<svg width="40" height="42" viewBox="0 0 40 42" fill="none" xmlns="http://www.w3.org/2000/svg">
<g>
<path d="M16.6832 16.6832C21.2872 16.6832 25.0496 12.9208 25.0496 8.31683C25.0496 3.71287 21.2872 0 16.6832 0C12.0793 0 8.31689 3.71287 8.31689 8.31683C8.31689 12.9208 12.0793 16.6832 16.6832 16.6832ZM16.6832 1.48515C20.4456 1.48515 23.5644 4.55446 23.5644 8.31683C23.5644 12.0792 20.4951 15.198 16.6832 15.198C12.8714 15.198 9.80204 12.0792 9.80204 8.31683C9.80204 4.55446 12.8714 1.48515 16.6832 1.48515Z" fill="#E32125"/>
<path d="M39.208 31.8812H36.9803V20.495C36.9803 20.297 36.9308 20.099 36.7822 20L34.9506 18.0198C35.5446 16.8812 35.2476 15.4455 34.2575 14.6039L32.2278 12.8713C31.6337 12.3762 30.8911 12.1287 30.1486 12.2277C29.406 12.2772 28.7129 12.6237 28.2179 13.2178C27.2278 14.4059 27.3763 16.2376 28.5644 17.2277L30.5941 18.9604C31.1387 19.4059 31.7822 19.6534 32.4258 19.6534C32.9704 19.6534 33.5149 19.5049 33.9605 19.2079L35.4951 20.8416V31.8812H31.2872C31.0892 24.1089 24.703 17.8713 16.9308 17.8713C9.10897 17.8713 2.72283 24.1089 2.57432 31.8812H0.742635C0.346596 31.8812 6.10352e-05 32.2277 6.10352e-05 32.6237V40.7425C6.10352e-05 41.1386 0.346596 41.4851 0.742635 41.4851H39.2575C39.6535 41.4851 40.0001 41.1386 40.0001 40.7425V32.6237C39.9506 32.2277 39.604 31.8812 39.208 31.8812ZM31.5347 17.8218L29.505 16.0891C28.9109 15.594 28.8614 14.7524 29.3565 14.1584C29.604 13.8614 29.9011 13.7128 30.2971 13.6633C30.3466 13.6633 30.3961 13.6633 30.3961 13.6633C30.6931 13.6633 31.0397 13.7623 31.2872 14.0099L33.3169 15.7425C33.911 16.2376 33.9605 17.0792 33.4654 17.6732C32.9704 18.2178 32.1288 18.3168 31.5347 17.8218ZM16.8812 19.3069C23.8614 19.3069 29.604 24.901 29.7525 31.8317H4.00996C4.20798 24.901 9.90105 19.3069 16.8812 19.3069ZM38.4654 40H1.4357V33.3663H38.4654V40Z" fill="#E32125"/>
</g>
</svg>
