<svg width="43" height="49" viewBox="0 0 43 49" fill="none" xmlns="http://www.w3.org/2000/svg">
<path d="M24.7357 7.42887V5.19003H26.7929C27.1943 5.19003 27.5455 4.83385 27.5455 4.42679V0.76324C27.5455 0.356179 27.1943 0 26.7929 0H18.0123C17.6109 0 17.2597 0.356179 17.2597 0.76324V4.42679C17.2597 4.83385 17.6109 5.19003 18.0123 5.19003H20.0695V7.42887C15.2025 7.98858 10.8874 10.2783 7.62605 13.6366L6.77308 12.7715L8.17798 11.3468C8.47903 11.0415 8.47903 10.5836 8.17798 10.2783L5.26783 7.3271C4.96678 7.02181 4.5152 7.02181 4.21415 7.3271L0.250324 11.2451C-0.0507264 11.5504 -0.0507264 12.0083 0.250324 12.3136L3.16048 15.2648C3.311 15.4174 3.5117 15.4683 3.7124 15.4683C3.9131 15.4683 4.1138 15.4174 4.26433 15.2648L5.7194 13.7892L6.67273 14.756C3.66223 18.3686 1.85592 23.0498 1.85592 28.1381C1.85592 39.6376 11.0881 49 22.4277 49C33.7672 49 42.9994 39.6376 42.9994 28.1381C42.9493 17.4528 34.9714 8.59917 24.7357 7.42887ZM3.66223 13.6874L1.80575 11.7539L4.61555 8.90446L6.47203 10.7871L5.36818 11.9065C5.21765 12.0592 5.01695 12.2627 4.81625 12.4663L3.66223 13.6874ZM20.8221 3.66355H18.7649V1.52648H26.0403V3.66355H23.9831C23.5817 3.66355 23.2305 4.01973 23.2305 4.42679V7.3271C22.9796 7.3271 22.6786 7.3271 22.4277 7.3271C22.1768 7.3271 21.8758 7.3271 21.6249 7.3271V4.42679C21.5747 3.96885 21.2235 3.66355 20.8221 3.66355ZM22.3775 47.4735C11.8909 47.4735 3.311 38.8235 3.311 28.1381C3.311 17.4528 11.8408 8.8027 22.3775 8.8027C22.7789 8.8027 23.1803 8.8027 23.5817 8.85358C23.7824 8.85358 23.9831 8.90446 24.1838 8.90446C33.8676 9.82035 41.444 18.1142 41.444 28.1381C41.444 38.8235 32.9143 47.4735 22.3775 47.4735Z" fill="#E32125"/>
<path d="M33.2159 15.621C33.1657 15.5701 33.1156 15.5192 33.0654 15.4684C30.2054 12.9751 26.4925 11.4995 22.4283 11.4995C13.3466 11.4995 6.02106 18.9793 6.02106 28.1381C6.02106 37.297 13.3466 44.8276 22.3781 44.8276C31.4096 44.8276 38.7854 37.3479 38.7854 28.189C38.7854 23.1516 36.6278 18.674 33.2159 15.621ZM22.3781 43.3012C14.1494 43.3012 7.47613 36.5338 7.47613 28.189C7.47613 19.8443 14.1494 13.0769 22.3781 13.0769C25.8402 13.0769 29.0012 14.2981 31.51 16.2825L23.3816 25.7467C23.0806 25.6449 22.7293 25.5431 22.4283 25.5431C21.0234 25.5431 19.8694 26.7134 19.8694 28.1381C19.8694 29.5629 21.0234 30.7332 22.4283 30.7332C23.8332 30.7332 24.937 29.5629 24.937 28.1381C24.937 27.6293 24.7865 27.1205 24.5356 26.7134L32.7142 17.1984C35.5742 19.946 37.3303 23.8131 37.3303 28.1381C37.2801 36.4829 30.6068 43.3012 22.3781 43.3012ZM23.4318 28.1381C23.4318 28.7487 22.9802 29.2067 22.3781 29.2067C21.776 29.2067 21.3244 28.7487 21.3244 28.1381C21.3244 27.5784 21.776 27.0696 22.3781 27.0696C22.9802 27.0696 23.4318 27.5784 23.4318 28.1381Z" fill="#E32125"/>
</svg>
